<svg width="467" opacity="0.7" height="330" viewBox="0 0 467 330" fill="none" xmlns="http://www.w3.org/2000/svg">
<g clip-path="url(#clip0_114_600)">
<path opacity="0.48" d="M28.0048 12.2208H400.944C406.173 12.2208 410.413 16.1988 410.413 21.1059V238.866C410.413 243.773 406.173 247.751 400.944 247.751H28.0048C22.7753 247.751 18.5359 243.773 18.5359 238.866V21.1059C18.5359 16.1988 22.7753 12.2208 28.0048 12.2208Z" fill="#EB513B"/>
<path opacity="0.18" d="M26.2903 264.945C26.576 272.659 28.4592 280.511 33.0614 286.905C38.8592 294.956 48.2752 299.939 57.395 304.625L83.2521 317.978C94.5831 323.835 106.528 329.831 119.446 330C128.587 330.129 137.431 327.3 146.223 324.927C187.284 313.808 230.534 312.25 272.98 315.059C294.722 316.498 316.358 319.03 337.898 322.078C355.133 324.48 375.816 332.472 391.358 323.011C408.286 312.686 418.675 295.968 428.239 279.737C436.566 265.65 445.008 251.215 447.759 235.321C451.991 210.761 441.856 185.535 425.996 165.581C421.227 159.621 416.02 153.982 410.412 148.704V238.875C410.412 241.236 409.416 243.501 407.642 245.176C405.868 246.85 403.46 247.797 400.943 247.81H28.0148C26.6873 253.433 26.1081 259.188 26.2903 264.945Z" fill="#EB513B"/>
<path opacity="0.18" d="M165.627 12.2305H265.342C261.589 9.55283 257.512 7.30025 253.196 5.51954C245.314 2.2931 236.723 0.853618 228.154 0.277824C206.592 -1.18152 184.967 3.28585 165.627 12.2305Z" fill="#EB513B"/>
<path d="M256.868 218.107C255.896 219.316 254.729 220.374 253.408 221.244C251.445 222.238 249.283 222.839 247.06 223.011L213.289 227.786C212.953 227.808 212.629 227.911 212.348 228.084C212.16 228.275 212.019 228.501 211.933 228.748C211.847 228.995 211.819 229.256 211.85 229.514C211.694 235.447 212.547 241.365 214.379 247.046C214.475 247.51 214.714 247.938 215.067 248.277C215.522 248.566 216.061 248.719 216.611 248.714C227.974 249.617 239.39 249.329 250.784 249.041C252.7 249.066 254.612 248.87 256.476 248.455C259.65 247.621 262.242 245.586 264.633 243.492C269.764 239.014 290.533 221.016 291.792 218.574C293.461 215.075 294.806 211.448 295.812 207.733C296.87 204.159 289.136 203.712 289.295 199.999C289.406 197.432 289.078 194.864 288.321 192.395C287.758 190.192 286.591 188.166 284.936 186.518C283.772 185.525 285.571 178.794 283.963 178.715C282.1 184.671 273.679 196.584 270.018 201.687C265.95 207.376 261.56 212.857 256.868 218.107Z" fill="#EB513B"/>
<path d="M256.868 218.107C255.896 219.316 254.729 220.374 253.408 221.244C251.445 222.238 249.283 222.839 247.06 223.011L213.289 227.786C212.953 227.808 212.629 227.911 212.348 228.084C212.16 228.275 212.019 228.501 211.933 228.748C211.847 228.995 211.819 229.256 211.85 229.514C211.694 235.447 212.547 241.365 214.379 247.046C214.475 247.51 214.714 247.938 215.067 248.277C215.522 248.566 216.061 248.719 216.611 248.714C227.974 249.617 239.39 249.329 250.784 249.041C252.7 249.066 254.612 248.87 256.476 248.455C259.65 247.621 262.242 245.586 264.633 243.492C269.764 239.014 290.533 221.016 291.792 218.574C293.461 215.075 294.806 211.448 295.812 207.733C296.87 204.159 289.136 203.712 289.295 199.999C289.406 197.432 289.078 194.864 288.321 192.395C287.758 190.192 286.591 188.166 284.936 186.518C283.772 185.525 285.571 178.794 283.963 178.715C282.1 184.671 273.679 196.584 270.018 201.687C265.95 207.376 261.56 212.857 256.868 218.107Z" fill="url(#paint0_linear_114_600)"/>
<path d="M342.321 167.815C344.595 169.717 346.717 171.774 348.668 173.97C353.345 179.36 356.455 185.774 359.354 192.167C367.067 209.183 373.785 227.38 371.785 245.775C371.748 246.882 371.428 247.965 370.854 248.932C369.944 250.027 368.665 250.801 367.225 251.126C363.512 252.238 359.545 252.288 355.588 252.318C340.342 252.447 325.075 252.576 309.841 251.881C307.481 251.772 304.984 251.603 303.027 250.352C301.597 249.325 300.457 247.986 299.705 246.45C295.611 239.223 294.415 230.864 291.241 223.26C287.009 213.332 275.372 204.308 277.826 193.845C288.321 149.419 337.517 163.715 342.321 167.815Z" fill="#EB513B"/>
<path d="M342.321 167.815C344.595 169.717 346.717 171.774 348.668 173.97C353.345 179.36 356.455 185.774 359.354 192.167C367.067 209.183 373.785 227.38 371.785 245.775C371.748 246.882 371.428 247.965 370.854 248.932C369.944 250.027 368.665 250.801 367.225 251.126C363.512 252.238 359.545 252.288 355.588 252.318C340.342 252.447 325.075 252.576 309.841 251.881C307.481 251.772 304.984 251.603 303.027 250.352C301.597 249.325 300.457 247.986 299.705 246.45C295.611 239.223 294.415 230.864 291.241 223.26C287.009 213.332 275.372 204.308 277.826 193.845C288.321 149.419 337.517 163.715 342.321 167.815Z" fill="url(#paint1_linear_114_600)"/>
<path d="M273.425 131.013C275.213 139.164 277.086 147.533 281.889 154.552C283.64 157.386 286.173 159.724 289.221 161.322C292.321 162.781 296.256 162.98 299.155 161.193C300.605 160.309 302.192 158.92 303.768 159.575C304.911 160.061 305.281 161.392 305.44 162.553C305.837 165.406 305.794 168.298 305.313 171.14C305.116 171.941 305.066 172.767 305.165 173.583C305.369 174.338 305.803 175.021 306.414 175.55C307.024 176.078 307.784 176.429 308.603 176.561C310.24 176.785 311.91 176.539 313.396 175.856C315.706 174.886 317.728 173.4 319.285 171.528C320.841 169.655 321.885 167.453 322.325 165.114C322.547 163.535 322.653 161.943 322.642 160.349C322.843 153.281 324.039 146.242 323.796 139.184C323.552 132.125 321.68 124.779 316.57 119.567C313.618 116.729 310.113 114.45 306.244 112.856C300.478 110.275 294.045 108.458 287.74 109.401C285.23 109.773 282.837 110.651 280.724 111.974C278.61 113.297 276.828 115.034 275.499 117.065C272.198 121.82 272.187 125.365 273.425 131.013Z" fill="#FFDAD2"/>
<path d="M257.671 113.054C257.242 109.742 257.897 106.385 259.551 103.43C261.205 100.476 263.778 98.0636 266.929 96.5152C269.732 95.2048 272.853 94.6488 275.879 93.8943C282.968 92.1074 289.771 89.149 297.039 88.5136C304.307 87.8783 312.665 90.2708 315.903 96.4556C316.495 97.5874 317.077 98.9574 318.378 99.2552C319.089 99.327 319.809 99.2663 320.494 99.0765C325.351 98.2724 329.72 102.164 331.91 106.304C335.444 113.005 335.624 120.818 334.851 128.253C334.142 135.133 332.27 142.569 326.387 146.758C325.805 147.175 324.949 147.553 324.388 147.106C324.131 146.854 323.971 146.529 323.933 146.182C323.341 143.574 323.121 140.903 323.277 138.24C323.393 136.255 323.732 134.15 323.182 132.195C322.632 130.239 320.865 128.382 318.706 128.442C316.707 128.442 315.099 130.189 314.601 132.016C314.247 133.876 314.323 135.785 314.824 137.615C314.506 138.36 313.395 137.466 313.205 136.692C311.745 130.457 311.417 123.478 306.804 118.822C305.866 119.734 305.182 120.849 304.815 122.069C304.126 121.398 303.249 120.924 302.285 120.699C301.322 120.474 300.31 120.509 299.367 120.798C298.028 121.345 296.797 122.1 295.727 123.032C284.491 131.261 260.031 128.819 257.671 113.054Z" fill="#3B3937"/>
<path d="M339.083 177.98C342.638 180.403 344.373 184.662 344.479 188.772C344.585 192.882 339.951 218.961 335.582 226.367C332.196 232.125 325.139 247.155 314.422 251.305C311.248 252.536 264.326 252.02 242.553 249.806C242.691 244.971 242.944 240.136 243.283 235.302C243.251 234.664 243.457 234.036 243.865 233.525C244.415 232.989 245.198 229.484 245.981 229.484C258.677 229.534 271.478 233.177 284.174 233.455C286.018 233.567 287.869 233.464 289.686 233.147C291.173 232.799 292.599 232.251 293.918 231.519C303.715 226.317 309.132 216.102 312.962 206.165C315.892 198.501 318.252 190.568 322.484 183.411C323.986 180.859 325.33 178.378 328.292 177.256C331.773 175.935 335.857 175.786 339.083 177.98Z" fill="#EB513B"/>
<path d="M339.083 177.98C342.638 180.403 344.373 184.662 344.479 188.772C344.585 192.882 339.951 218.961 335.582 226.367C332.196 232.125 325.139 247.155 314.422 251.305C311.248 252.536 264.326 252.02 242.553 249.806C242.691 244.971 242.944 240.136 243.283 235.302C243.251 234.664 243.457 234.036 243.865 233.525C244.415 232.989 245.198 229.484 245.981 229.484C258.677 229.534 271.478 233.177 284.174 233.455C286.018 233.567 287.869 233.464 289.686 233.147C291.173 232.799 292.599 232.251 293.918 231.519C303.715 226.317 309.132 216.102 312.962 206.165C315.892 198.501 318.252 190.568 322.484 183.411C323.986 180.859 325.33 178.378 328.292 177.256C331.773 175.935 335.857 175.786 339.083 177.98Z" fill="url(#paint2_linear_114_600)"/>
<path d="M244.415 228.551C237.823 227.965 230.502 229.345 226.323 234.16C225.883 234.599 225.595 235.153 225.498 235.748C225.502 236.284 225.679 236.807 226.006 237.247C228.471 241.089 233.824 242.002 238.321 243.521C240.66 244.308 242.893 245.347 244.975 246.619C246.147 247.491 247.503 248.121 248.953 248.465C252.127 248.912 254.762 246.251 256.2 243.591C257.851 240.613 260.432 234.497 257.258 231.678C254.666 229.444 247.673 228.829 244.415 228.551Z" fill="#FFDAD2"/>
<path d="M189.834 227.022C188.661 227.648 187.652 228.513 186.883 229.554C186.507 230.08 186.284 230.689 186.235 231.321C186.187 231.953 186.315 232.586 186.608 233.157C187.107 233.861 187.787 234.435 188.586 234.825C194.437 238.091 201.61 238.677 207.534 241.774C208.75 242.603 210.144 243.173 211.618 243.442C212.485 243.46 213.344 243.29 214.129 242.946C214.915 242.602 215.605 242.092 216.146 241.457C217.225 240.193 218.053 238.757 218.59 237.218C225.52 220.142 199.801 221.066 189.834 227.022Z" fill="#FFDAD2"/>
<path d="M357.492 219.398H330.08V240.523C330.08 242.498 330.916 244.392 332.404 245.788C333.892 247.185 335.91 247.969 338.015 247.969H349.557C351.662 247.969 353.68 247.185 355.168 245.788C356.656 244.392 357.492 242.498 357.492 240.523V219.398Z" fill="white"/>
<path d="M331.932 224.521H323.626C321.873 224.521 320.191 225.174 318.951 226.338C317.711 227.502 317.014 229.08 317.014 230.725V233.297C317.014 234.942 317.711 236.52 318.951 237.684C320.191 238.848 321.873 239.501 323.626 239.501H331.932V224.521Z" stroke="white" stroke-width="3.03781" stroke-miterlimit="10"/>
<path d="M23.7731 247.513H395.103C398.352 247.513 400.986 249.982 400.986 253.027C400.986 256.073 398.352 258.542 395.103 258.542H23.7731C20.5243 258.542 17.8907 256.073 17.8907 253.027C17.8907 249.982 20.5243 247.513 23.7731 247.513Z" fill="#EB513B"/>
<path d="M92.0335 258.711H301.927V327.022H92.0335V258.711Z" fill="#EB513B"/>
<path d="M300.499 258.711H382.947V327.022H300.499V258.711Z" fill="#EB513B"/>
<path d="M92.0237 258.711H300.541V327.022H92.0237V258.711Z" fill="url(#paint3_linear_114_600)"/>
<path d="M300.499 258.711H382.947V327.022H300.499V258.711Z" fill="url(#paint4_linear_114_600)"/>
<path opacity="0.18" d="M18.5469 21.1158V64.5982H410.413V21.1158C410.413 18.7547 409.417 16.4896 407.642 14.8154C405.868 13.1413 403.46 12.1941 400.944 12.181H28.0158C25.4996 12.1941 23.0913 13.1413 21.317 14.8154C19.5428 16.4896 18.5468 18.7547 18.5469 21.1158Z" fill="#EB513B"/>
<path d="M241.273 247.324L105.386 247.324C101.576 247.324 98.4878 244.426 98.4878 240.851C98.4878 237.276 101.576 234.378 105.386 234.378L241.273 234.378C245.083 234.378 248.171 237.276 248.171 240.851C248.171 244.426 245.083 247.324 241.273 247.324Z" fill="#EB513B"/>
<path d="M241.273 247.324L105.386 247.324C101.576 247.324 98.4878 244.426 98.4878 240.851C98.4878 237.276 101.576 234.378 105.386 234.378L241.273 234.378C245.083 234.378 248.171 237.276 248.171 240.851C248.171 244.426 245.083 247.324 241.273 247.324Z" fill="url(#paint5_linear_114_600)"/>
<path d="M194.151 247.344H89.8651L62.3575 181.892C61.9925 181.019 61.8598 180.077 61.9711 179.145C62.0825 178.214 62.4344 177.322 62.9963 176.547C63.5582 175.773 64.3131 175.138 65.1956 174.7C66.078 174.261 67.0613 174.031 68.06 174.029H149.895C153.854 174.036 157.719 175.158 160.99 177.25C164.261 179.343 166.787 182.308 168.24 185.763L194.151 247.344Z" fill="#EB513B"/>
<path d="M188.85 247.413H89.8018L63.6804 185.237C63.3318 184.409 63.2044 183.513 63.3094 182.628C63.4144 181.743 63.7485 180.895 64.2827 180.159C64.8168 179.423 65.5348 178.821 66.374 178.405C67.2132 177.988 68.1481 177.771 69.0972 177.772H146.816C150.581 177.77 154.26 178.832 157.373 180.818C160.486 182.805 162.891 185.625 164.273 188.911L188.85 247.413Z" fill="#EB513B"/>
<path d="M188.85 247.413H89.8018L63.6804 185.237C63.3318 184.409 63.2044 183.513 63.3094 182.628C63.4144 181.743 63.7485 180.895 64.2827 180.159C64.8168 179.423 65.5348 178.821 66.374 178.405C67.2132 177.988 68.1481 177.771 69.0972 177.772H146.816C150.581 177.77 154.26 178.832 157.373 180.818C160.486 182.805 162.891 185.625 164.273 188.911L188.85 247.413Z" fill="url(#paint6_linear_114_600)"/>
<path opacity="0.51" d="M76.7149 153.489H223.351V161.233H76.7149V153.489Z" fill="white"/>
<path d="M119.108 140.236H223.351V147.979H119.108V140.236Z" fill="white"/>
<path d="M35.0725 140.236H104.857V147.979H35.0725V140.236Z" fill="white"/>
<path d="M35.3162 91.2139H142.606V98.0936H35.3162V91.2139Z" fill="white"/>
<path opacity="0.51" d="M50.2967 103.435H165.077V110.314H50.2967V103.435Z" fill="white"/>
<path d="M150.794 91.2139H221.362V98.0936H150.794V91.2139Z" fill="white"/>
<path d="M35.3154 115.288H190.405V122.168H35.3154V115.288Z" fill="white"/>
<path opacity="0.51" d="M198.594 115.288H221.362V122.168H198.594V115.288Z" fill="white"/>
<path opacity="0.51" d="M35.3153 127.509H137.686V134.389H35.3153V127.509Z" fill="white"/>
<path d="M150.794 127.509H221.362V134.389H150.794V127.509Z" fill="white"/>
<path d="M175.985 103.147H221.362V110.026H175.985V103.147Z" fill="white"/>
<path d="M74.5556 68.053H181.846V74.9327H74.5556V68.053Z" fill="white"/>
<path opacity="0.51" d="M89.537 80.2737H204.318V87.1534H89.537V80.2737Z" fill="white"/>
<path d="M190.024 68.053H260.591V74.9327H190.024V68.053Z" fill="white"/>
<path d="M75.5084 53.8071H182.798V60.6868H75.5084V53.8071Z" fill="white"/>
<path d="M190.976 40.8815H261.544V47.7612H190.976V40.8815Z" fill="white"/>
<path d="M190.976 29.0876H261.544V35.9673H190.976V29.0876Z" fill="white"/>
<path d="M215.214 79.986H260.591V86.8658H215.214V79.986Z" fill="white"/>
</g>
<defs>
<linearGradient id="paint0_linear_114_600" x1="290.501" y1="206.343" x2="238.237" y2="227.569" gradientUnits="userSpaceOnUse">
<stop offset="0.01"/>
<stop offset="0.12" stop-opacity="0.75"/>
<stop offset="1" stop-opacity="0"/>
</linearGradient>
<linearGradient id="paint1_linear_114_600" x1="317.5" y1="261.371" x2="331.752" y2="169.775" gradientUnits="userSpaceOnUse">
<stop offset="0.01"/>
<stop offset="0.12" stop-opacity="0.75"/>
<stop offset="1" stop-opacity="0"/>
</linearGradient>
<linearGradient id="paint2_linear_114_600" x1="311.745" y1="256.288" x2="287.875" y2="199.04" gradientUnits="userSpaceOnUse">
<stop offset="0.01"/>
<stop offset="0.12" stop-opacity="0.75"/>
<stop offset="1" stop-opacity="0"/>
</linearGradient>
<linearGradient id="paint3_linear_114_600" x1="170.494" y1="211.555" x2="211" y2="356.597" gradientUnits="userSpaceOnUse">
<stop offset="0.01"/>
<stop offset="0.12" stop-opacity="0.75"/>
<stop offset="1" stop-opacity="0"/>
</linearGradient>
<linearGradient id="paint4_linear_114_600" x1="358.466" y1="218.365" x2="319.403" y2="415.786" gradientUnits="userSpaceOnUse">
<stop offset="0.01"/>
<stop offset="0.12" stop-opacity="0.75"/>
<stop offset="1" stop-opacity="0"/>
</linearGradient>
<linearGradient id="paint5_linear_114_600" x1="173.615" y1="253.419" x2="173.065" y2="226.395" gradientUnits="userSpaceOnUse">
<stop offset="0.01"/>
<stop offset="0.12" stop-opacity="0.75"/>
<stop offset="1" stop-opacity="0"/>
</linearGradient>
<linearGradient id="paint6_linear_114_600" x1="128.365" y1="270.117" x2="124.601" y2="168.55" gradientUnits="userSpaceOnUse">
<stop offset="0.01"/>
<stop offset="0.12" stop-opacity="0.75"/>
<stop offset="1" stop-opacity="0"/>
</linearGradient>
<clipPath id="clip0_114_600">
<rect width="466.613" height="330" fill="white" transform="matrix(-1 0 0 1 466.613 0)"/>
</clipPath>
</defs>
</svg>
