<svg width="825" height="643" viewBox="0 0 825 643" fill="none" xmlns="http://www.w3.org/2000/svg">
<g opacity="0.61" clip-path="url(#clip0_198_466)">
<path opacity="0.1" d="M661.295 217.581C666.3 231.727 668.094 246.789 666.551 261.709C665.008 276.628 660.166 291.045 652.365 303.946C640.687 322.873 622.969 337.825 612.862 357.561C591.013 400.173 609.569 454.056 589.934 497.697C573.525 534.203 534.64 554.878 498.427 572.877C469.991 587.001 441.266 601.224 410.452 608.637C379.637 616.051 345.791 616.098 317.311 602.525C293.826 591.369 275.578 571.994 258.585 552.536C216.81 504.662 178.209 451.92 161.27 391.015C144.332 330.111 152.412 259.388 195.472 212.378C216.432 189.485 245.039 172.44 258.805 144.771C273.252 115.741 270.071 77.3125 294.628 55.7943C303.69 47.8475 315.446 43.487 327.268 40.8583C355.739 34.6512 385.456 37.5812 412.057 49.2181C439.052 61.1126 462.18 81.7768 491.018 88.3527C528.342 96.8752 574.101 83.7074 601.306 116.333C623.164 142.572 649.796 185.777 661.295 217.581Z" fill="#EB513B"/>
<path d="M505.166 211.522C504.823 212.433 504.32 213.279 503.681 214.02C498.586 220.352 491.678 225.037 483.854 227.466C481.095 228.354 478.242 228.931 475.352 229.186C472.702 218.586 470.021 207.975 467.735 197.3C465.939 188.961 464.41 180.613 463.289 172.185C462.567 166.904 449.241 149.457 451.187 144.29C453.339 138.608 473.984 155.565 476.436 158.924C490.033 177.428 495.636 192.175 505.263 208.272C505.667 209.324 505.632 210.492 505.166 211.522V211.522Z" fill="#EB513B"/>
<path d="M485.594 225.325C485.09 226.103 484.508 226.83 483.857 227.495C481.098 228.383 478.245 228.96 475.355 229.215C472.704 218.615 470.024 208.004 467.738 197.329C467.484 188.804 467.641 180.277 468.209 171.747C467.962 175.317 473.049 182.604 474.549 185.946L481.056 200.51C484.449 208.108 491.056 217.129 485.594 225.325Z" fill="url(#paint0_linear_198_466)"/>
<path d="M480.881 244.275C482.688 251.24 484.827 258.263 488.934 264.206C491.047 267.26 494.053 270.176 497.8 270.412C499.873 270.421 501.919 269.933 503.761 268.991C507.601 267.3 511.164 265.053 514.332 262.327C517.349 259.601 520.159 256.661 522.74 253.533C526.612 249.24 530.14 244.659 533.294 239.831C534.736 237.513 536.02 235.091 537.618 232.861C544.216 223.586 555.656 218.669 563.324 210.233C565.394 207.975 569.123 198.152 568.516 195.169C565.298 193.703 559.63 201.26 556.333 202.575C553.035 203.891 550.015 205.824 546.696 207.069C542.721 208.548 538.427 208.986 534.234 208.338C532.819 208.113 529.258 186.774 527.917 187.39C527.245 187.74 526.661 188.23 526.204 188.828C523.604 191.979 524.242 216.849 522.157 220.276C519.288 224.912 515.075 228.616 510.893 232.172C510.519 232.482 510.044 232.817 509.583 232.639C509.428 232.545 509.294 232.421 509.189 232.275C509.084 232.129 509.011 231.963 508.973 231.788C507.432 227.646 505.746 223.547 503.947 219.516C502.688 216.708 500.99 213.646 497.952 213.04C495.247 212.507 492.638 214.214 490.406 215.829C487.534 217.924 484.63 219.993 481.774 222.102C480.185 223.265 478.24 224.431 477.611 226.371C476.838 228.703 477.939 231.73 478.424 234.009C479.176 237.461 480 240.878 480.881 244.275Z" fill="#F5BCBA"/>
<path d="M525.291 438.933C525.686 443.366 525.853 447.747 525.84 452.114C525.701 489.491 510.975 525.429 484.704 552.505C458.432 579.58 422.623 595.723 384.674 597.599C346.725 599.475 309.537 586.941 280.791 562.586C252.045 538.231 233.938 503.915 230.212 466.73C230.168 466.237 230.126 465.759 230.083 465.281C228.181 446.11 230.162 426.746 235.911 408.311C241.66 389.875 251.063 372.733 263.577 357.875C276.091 343.017 291.467 330.739 308.816 321.749C326.165 312.76 345.143 307.237 364.653 305.502C384.164 303.766 403.819 305.852 422.482 311.638C441.146 317.424 458.447 326.796 473.387 339.212C488.327 351.627 500.608 366.841 509.521 383.972C518.434 401.103 523.802 419.813 525.314 439.019L525.291 438.933Z" fill="#EB513B"/>
<path d="M525.291 438.933C525.686 443.366 525.853 447.747 525.84 452.114C493.895 477.867 445.178 496.657 389.426 501.617C324.614 507.382 265.945 493.077 230.206 466.657C230.162 466.165 230.119 465.687 230.077 465.209C228.175 446.037 230.156 426.674 235.905 408.238C241.654 389.803 251.057 372.661 263.571 357.803C276.084 342.945 291.46 330.666 308.809 321.677C326.159 312.687 345.137 307.165 364.647 305.43C384.157 303.694 403.812 305.78 422.476 311.566C441.139 317.352 458.441 326.724 473.381 339.139C488.321 351.555 500.602 366.768 509.515 383.899C518.428 401.031 523.795 419.74 525.307 438.946L525.291 438.933Z" fill="url(#paint1_linear_198_466)"/>
<path d="M440.318 389.279C446.395 390.841 452.936 391.764 458.119 395.289C462.716 398.399 465.773 403.224 468.329 408.093C476.861 424.436 481.036 442.654 480.462 461.043C480.304 465.934 479.863 470.996 481.56 475.547C483.256 480.099 488.02 484.085 492.888 483.068C498.523 469.132 497.286 453.559 495.973 438.635C495.004 427.74 494.014 416.614 489.389 406.672C485.602 398.481 479.575 391.482 473.404 384.861C450.889 360.579 424.289 338.428 392.136 329.475C390.789 328.94 389.291 328.893 387.908 329.34C381.705 332.213 383.749 343.334 386.639 347.618C390.728 353.528 395.197 359.174 400.02 364.52C410.627 376.554 424.662 385.177 440.318 389.279V389.279Z" fill="url(#paint2_linear_198_466)"/>
<path d="M379.149 361.719C379.063 359.762 379.147 357.8 379.399 355.856C379.542 354.889 379.951 353.979 380.583 353.225C381.215 352.471 382.045 351.902 382.983 351.58C383.79 351.486 384.59 351.342 385.379 351.147C386.97 350.509 387.496 348.579 387.825 346.929L391.456 328.499C392.148 324.932 392.84 321.191 391.76 317.739C390.063 312.341 384.591 309.075 379.343 306.825C375.53 305.179 371.279 303.79 367.294 304.889C361.121 306.592 358.049 313.29 356.227 319.337C354.057 325.836 352.973 332.634 353.014 339.468C353.299 347.342 354.329 366.599 359.873 373.013C367.563 382.025 378.832 370.509 379.149 361.719Z" fill="url(#paint3_linear_198_466)"/>
<path d="M456.584 331.978C470.34 335.237 484.75 335.839 498.128 340.358C498.554 340.445 498.956 340.617 499.311 340.865C499.665 341.112 499.963 341.429 500.186 341.796C500.354 342.414 500.33 343.067 500.115 343.672C492.072 376.441 488.891 410.17 490.673 443.809C498.497 444.487 506.385 443.958 514.05 442.24C514.917 442.109 515.738 441.771 516.441 441.254C517.102 440.574 517.57 439.737 517.799 438.826C527.813 410.2 536.504 381.171 543.873 351.739C545.176 346.526 546.443 341.084 545.265 335.844C543.561 328.212 537.113 322.653 531.013 317.661L483.463 278.638C482.241 277.504 480.787 276.638 479.198 276.097C477.393 275.739 475.526 275.815 473.755 276.319C456.693 279.954 433.198 282.701 401.383 284.217C397.258 284.408 419.618 305.623 421.705 309.891C423.372 313.276 428.061 317.415 430.925 319.906C438.098 326.102 447.363 329.79 456.584 331.978Z" fill="#252322"/>
<path d="M456.584 331.978C470.34 335.237 484.75 335.839 498.128 340.358C498.554 340.445 498.956 340.617 499.311 340.865C499.665 341.112 499.963 341.429 500.186 341.796C500.354 342.414 500.33 343.067 500.115 343.672C492.072 376.441 488.891 410.17 490.673 443.809C498.497 444.487 506.385 443.958 514.05 442.24C514.917 442.109 515.738 441.771 516.441 441.254C517.102 440.574 517.57 439.737 517.799 438.826C527.813 410.2 536.504 381.171 543.873 351.739C545.176 346.526 546.443 341.084 545.265 335.844C543.561 328.212 537.113 322.653 531.013 317.661L483.463 278.638C482.241 277.504 480.787 276.638 479.198 276.097C477.393 275.739 475.526 275.815 473.755 276.319C456.693 279.954 433.198 282.701 401.383 284.217C397.258 284.408 419.618 305.623 421.705 309.891C423.372 313.276 428.061 317.415 430.925 319.906C438.098 326.102 447.363 329.79 456.584 331.978Z" fill="url(#paint4_linear_198_466)"/>
<path d="M490.126 463.031C489.199 464.768 488.636 466.671 488.471 468.624C487.985 472.062 487.708 475.524 487.641 478.993C487.584 481.685 487.738 484.592 489.48 486.642C491.221 488.692 493.84 489.262 496.308 489.963C502.531 491.86 508.618 494.162 514.529 496.855C518.512 498.574 522.664 500.352 527.008 500.126C531.353 499.9 535.933 497.141 536.551 492.91C536.716 490.885 536.361 488.853 535.521 487C532.417 478.898 527.112 471.794 520.183 466.461C518.965 465.483 517.63 464.656 516.208 463.996C514.851 463.452 513.447 463.029 512.013 462.734C507.953 461.668 503.82 460.889 499.646 460.402C496.017 460.156 492.3 459.435 490.126 463.031Z" fill="#3B3937"/>
<path d="M490.126 463.031C489.199 464.768 488.636 466.671 488.471 468.624C487.985 472.062 487.708 475.524 487.641 478.993C487.584 481.685 487.738 484.592 489.48 486.642C491.221 488.692 493.84 489.262 496.308 489.963C502.531 491.86 508.618 494.162 514.529 496.855C518.512 498.574 522.664 500.352 527.008 500.126C531.353 499.9 535.933 497.141 536.551 492.91C536.716 490.885 536.361 488.853 535.521 487C532.417 478.898 527.112 471.794 520.183 466.461C518.965 465.483 517.63 464.656 516.208 463.996C514.851 463.452 513.447 463.029 512.013 462.734C507.953 461.668 503.82 460.889 499.646 460.402C496.017 460.156 492.3 459.435 490.126 463.031Z" fill="url(#paint5_linear_198_466)"/>
<path d="M492.905 444.705C492.298 450.536 492.234 456.407 492.714 462.245C492.942 464.81 493.371 467.634 495.405 469.307C497.299 470.534 499.613 470.969 501.838 470.517C504.538 470.177 507.163 469.396 509.604 468.205C510.15 467.983 510.629 467.629 510.998 467.175C511.26 466.738 511.424 466.25 511.479 465.745C512.989 457.252 513.422 448.61 512.768 440.018C512.792 438.66 512.388 437.329 511.613 436.207C510.042 434.405 507.148 434.75 504.833 435.423C501.872 436.327 498.994 437.477 496.23 438.861C493.603 440.029 493.205 441.904 492.905 444.705Z" fill="#F5BCBA"/>
<path d="M524.375 469.359C525.669 471.838 526.771 474.41 527.673 477.053C528.316 479.113 528.781 481.335 530.3 482.894C532.225 484.84 535.293 485.107 538.051 484.906C540.333 484.83 542.569 484.252 544.596 483.214C545.653 482.695 546.498 481.836 546.993 480.781C547.314 479.754 547.36 478.663 547.127 477.615C546.257 470.274 543.748 463.217 539.781 456.949C537.538 453.726 535.063 450.667 532.374 447.795C531.488 446.474 530.111 445.548 528.537 445.216C527.747 445.258 526.974 445.456 526.262 445.798C525.55 446.14 524.915 446.618 524.394 447.205C522.123 449.218 517.043 452.692 517.906 456.047C519.016 460.519 522.343 465.203 524.375 469.359Z" fill="#F5BCBA"/>
<path d="M542.704 473.117C541.119 474.182 539.59 475.327 538.124 476.547C535.811 478.081 532.977 478.596 530.378 479.587C529.686 479.782 529.069 480.178 528.608 480.723C528.284 481.243 528.107 481.838 528.094 482.448C527.945 486.447 528.466 490.441 529.635 494.27C531.741 502.591 534.07 510.858 536.622 519.072C537.68 522.453 538.902 526.009 541.67 528.26C544.439 530.511 548.389 531.021 552.022 530.8C555.429 530.69 558.76 529.767 561.73 528.111C564.074 526.598 566.042 524.584 567.487 522.22C568.932 519.856 569.817 517.204 570.076 514.46C570.553 508.947 569.38 503.422 566.703 498.566C564.883 495.244 562.823 492.055 560.539 489.024C557.489 484.778 554.449 480.532 551.418 476.284C549.111 473.043 547.072 470.815 542.704 473.117Z" fill="#3B3937"/>
<path d="M542.704 473.117C541.119 474.182 539.59 475.327 538.124 476.547C535.811 478.081 532.977 478.596 530.378 479.587C529.686 479.782 529.069 480.178 528.608 480.723C528.284 481.243 528.107 481.838 528.094 482.448C527.945 486.447 528.466 490.441 529.635 494.27C531.741 502.591 534.07 510.858 536.622 519.072C537.68 522.453 538.902 526.009 541.67 528.26C544.439 530.511 548.389 531.021 552.022 530.8C555.429 530.69 558.76 529.767 561.73 528.111C564.074 526.598 566.042 524.584 567.487 522.22C568.932 519.856 569.817 517.204 570.076 514.46C570.553 508.947 569.38 503.422 566.703 498.566C564.883 495.244 562.823 492.055 560.539 489.024C557.489 484.778 554.449 480.532 551.418 476.284C549.111 473.043 547.072 470.815 542.704 473.117Z" fill="url(#paint6_linear_198_466)"/>
<path d="M340.647 223.806C339.642 227.11 339.077 230.528 338.968 233.973C338.352 242.922 338.248 251.897 338.657 260.854C339.436 277.958 342.074 294.925 343.103 312.006C344.179 329.769 343.692 348.328 351.643 364.282C352.92 367.192 354.867 369.769 357.331 371.808C358.575 372.808 360.059 373.479 361.643 373.758C363.226 374.036 364.857 373.912 366.38 373.398C367.742 372.739 368.931 371.78 369.856 370.596C370.78 369.412 371.416 368.034 371.712 366.571C372.27 363.644 372.364 360.65 371.991 357.697L370.786 341.479C370.756 341.146 370.722 340.754 371.047 340.579C371.185 340.519 371.336 340.494 371.486 340.509C371.636 340.524 371.779 340.577 371.901 340.664C373.264 341.629 374.571 342.668 375.815 343.777C377.219 344.703 379.356 345.024 380.413 343.718C380.697 343.268 380.882 342.764 380.956 342.239C381.03 341.714 380.99 341.18 380.839 340.672C379.509 333.723 372.843 329.22 368.608 323.507C362.503 315.289 361.528 304.336 361.969 294.104C362.507 281.294 364.884 268.626 367.25 256.004L369.27 245.325C370.79 237.217 372.217 228.386 368.302 221.098C366.742 218.303 364.532 215.913 361.852 214.121C359.172 212.329 356.098 211.187 352.88 210.787C346.624 210.22 342.433 218.682 340.647 223.806Z" fill="#F5BCBA"/>
<path d="M483.259 277.518C481.806 282.714 470.561 277.8 464.701 281.359C453.521 288.194 439.646 283.427 426.624 284.746C412.771 286.226 404.392 300.523 390.772 303.458C389.789 303.75 388.757 303.841 387.738 303.728C385.789 303.346 384.503 301.577 383.537 299.896C382.108 297.297 381.005 294.537 380.252 291.675C377.687 282.207 378.479 271.739 379.435 261.797C380.23 253.374 381.019 244.946 381.803 236.514C382.712 226.698 383.63 216.823 384.557 206.889C385.032 200.348 385.941 193.842 387.279 187.415C387.536 186.297 387.81 185.207 388.115 184.129C390.785 175.327 394.189 166.756 398.291 158.501C400.79 153.212 403.281 147.836 407.494 143.62C412.2 138.952 418.568 136.269 425.062 134.669C430.886 133.044 437.022 132.849 442.932 134.101C446.317 134.939 447.858 138.248 450.652 140.117C454.172 142.231 457.374 144.816 460.169 147.798C463.063 151.441 465.265 155.568 466.672 159.983C479.05 194.482 469.079 233.774 481.009 268.416C482.381 272.485 484.423 273.413 483.259 277.518Z" fill="#EB513B"/>
<path d="M459.672 154.56L461.48 161.861L456.846 159.834L458.591 179.451L451.615 158.109L455.869 150.693L459.672 154.56Z" fill="url(#paint7_linear_198_466)"/>
<path d="M422.216 157.41L425.129 158.611L429.884 161.999L420.866 194.138C420.866 194.138 435.678 166.712 435.062 153.449C434.686 145.291 432.932 137.255 429.874 129.67L422.216 157.41Z" fill="url(#paint8_linear_198_466)"/>
<path d="M392.405 249.882C392.103 257.083 392.744 264.289 394.312 271.324C395.315 275.747 396.684 280.123 396.774 284.641C396.866 285.518 396.657 286.4 396.18 287.147C395.538 287.762 394.718 288.167 393.834 288.305C389.292 289.43 384.746 290.569 380.197 291.723C377.632 282.255 378.424 271.788 379.38 261.846C380.175 253.423 380.964 244.995 381.748 236.563C382.657 226.747 383.575 216.872 384.502 206.938C384.977 200.396 385.886 193.891 387.224 187.464C387.481 186.346 387.755 185.256 388.06 184.177C392.404 181.279 398.588 178.86 401.774 182.636C405.107 186.72 402.135 197.206 401.373 201.655C398.591 217.775 393.065 233.439 392.405 249.882Z" fill="url(#paint9_linear_198_466)"/>
<path d="M487.183 114.847C487.497 116.635 487.604 118.453 487.502 120.265C487.433 121.171 487.052 122.027 486.424 122.693C485.795 123.359 484.955 123.796 484.042 123.932C479.417 124.007 476.488 128.634 473.083 131.741C470.404 134.108 467.117 135.705 463.582 136.357C460.046 137.009 456.4 136.69 453.042 135.436C452.382 135.267 451.68 135.354 451.082 135.679C450.484 136.004 450.034 136.542 449.827 137.182C449.481 138.501 449.502 139.886 449.887 141.193L452.991 156.892C453.587 159.92 453.949 163.655 451.459 165.541C448.969 167.428 445.719 166.271 443.373 164.596C439.657 161.659 436.816 157.791 435.146 153.398C431.454 144.523 430.177 134.848 431.441 125.326C432.705 115.804 436.467 106.763 442.356 99.0919C444.564 96.1832 447.23 93.6389 450.252 91.5556C453.432 89.5587 456.903 88.0532 460.544 87.0916C463.785 86.0291 467.189 85.5384 470.6 85.6422C475.204 86.0495 479.53 87.9751 482.874 91.1069C485.327 93.3127 488.145 100.29 490.606 101.254C489.243 105.785 486.818 109.9 487.183 114.847Z" fill="#F5BCBA"/>
<path d="M446.592 55.7544C444.389 55.4496 442.14 55.715 440.069 56.5245C436.044 58.3428 434.097 62.8237 432.957 67.0285C431.816 71.2332 430.975 75.7911 427.961 78.965C425.369 81.7072 421.467 83.062 419.178 86.04C416.517 89.5039 416.658 94.2663 417.321 98.5444C417.608 101.773 418.814 104.854 420.799 107.435C422.546 109.382 425.076 110.617 426.499 112.768C428.115 115.239 428.943 119.21 431.934 119.119C433.169 118.947 434.295 118.326 435.09 117.378C437.87 114.554 439.844 111.058 440.81 107.246C441.349 105.125 441.617 102.794 443.078 101.203C444.54 99.6131 447.773 99.2379 448.678 101.231C448.997 102.522 448.911 103.879 448.43 105.123C448.161 106.432 448.476 108.141 449.782 108.463C451.846 104.629 452.807 100.25 455.343 96.71C456.783 94.7176 458.667 93.0746 460.849 91.9067C463.032 90.7388 465.456 90.077 467.936 89.972C470.416 89.867 472.885 90.3216 475.155 91.3009C477.426 92.2802 479.437 93.7583 481.034 95.622C482.692 97.5628 483.912 99.9366 486.106 101.231C488.152 102.222 490.429 102.664 492.708 102.513C497.819 102.555 503.197 102.266 507.566 99.6432C511.935 97.0204 514.83 91.3453 512.659 86.7927C510.945 83.2214 506.811 81.4718 502.875 80.6245C498.94 79.7772 494.792 79.5474 491.231 77.7323C486.392 75.2422 483.488 70.302 480.406 65.8596C477.323 61.4172 473.287 56.9282 467.857 56.3015C465.65 56.1618 463.434 56.359 461.287 56.8858C459.202 57.518 457.043 57.877 454.864 57.9536C452.165 57.6534 449.445 56.1139 446.592 55.7544Z" fill="#3B3937"/>
<path d="M457.182 174.801C462.037 191.262 464.553 208.311 464.658 225.464C464.755 239.737 463.237 254.051 464.604 268.254C465.177 272.232 465.41 276.251 465.302 280.269C465.004 284.267 438.003 285.15 434.081 285.455C427.474 285.955 436.622 293.991 431.282 290.202C422.895 284.216 418.493 274.109 416.636 264.081C413.983 249.788 415.705 235.09 417.718 220.674C419.117 210.693 420.66 200.67 423.907 191.108C427.933 179.287 434.614 164.105 436.096 151.721C436.306 149.907 429.469 143.987 432.173 143.835C433.926 143.679 433.339 146.432 433.767 147.738C434.5 149.718 435.724 151.486 437.328 152.882C439.592 155.059 442.52 156.445 445.666 156.828C447.687 157.013 449.947 156.725 451.515 157.987C453.417 159.512 453.428 162.811 454.133 165.055C455.146 168.265 456.207 171.515 457.182 174.801Z" fill="#F2F2F2"/>
<path d="M393.707 137.005C386.864 140.856 381.179 146.385 375.855 152.115C371.441 156.788 367.318 161.719 363.509 166.881C360.155 171.561 357.138 176.37 353.555 180.821C348.607 186.942 342.286 192.995 341.9 200.842C341.931 204.913 343.011 208.906 345.041 212.449C346.778 216.095 349.159 219.408 352.073 222.235C355.749 225.583 360.396 227.722 365.37 228.353C366.934 228.609 368.537 228.536 370.072 228.139C372.212 227.33 374.131 226.039 375.675 224.37C379.261 221.17 382.621 217.734 385.732 214.086C388.892 210.227 391.479 205.923 394.543 201.985C397.211 198.594 400.097 195.489 402.77 192.156C405.963 188.163 408.743 183.871 411.524 179.578C415.479 173.74 419.039 167.653 422.181 161.356C424.78 155.814 426.718 149.996 427.958 144.02C428.755 140.123 430.138 135.152 425.977 132.762C417.141 127.736 401.661 132.457 393.707 137.005Z" fill="#EB513B"/>
<path d="M393.707 137.005C386.864 140.856 381.179 146.385 375.855 152.115C371.441 156.788 367.318 161.719 363.509 166.881C360.155 171.561 357.138 176.37 353.555 180.821C348.607 186.942 342.286 192.995 341.9 200.842C341.931 204.913 343.011 208.906 345.041 212.449C346.778 216.095 349.159 219.408 352.073 222.235C355.749 225.583 360.396 227.722 365.37 228.353C366.934 228.609 368.537 228.536 370.072 228.139C372.212 227.33 374.131 226.039 375.675 224.37C379.261 221.17 382.621 217.734 385.732 214.086C388.892 210.227 391.479 205.923 394.543 201.985C397.211 198.594 400.097 195.489 402.77 192.156C405.963 188.163 408.743 183.871 411.524 179.578C415.479 173.74 419.039 167.653 422.181 161.356C424.78 155.814 426.718 149.996 427.958 144.02C428.755 140.123 430.138 135.152 425.977 132.762C417.141 127.736 401.661 132.457 393.707 137.005Z" fill="#EB513B"/>
<path d="M523.072 192.173C521.567 193.304 520.567 194.966 520.285 196.807C520.002 198.647 520.459 200.522 521.559 202.033C524.408 206.044 528.054 209.445 532.276 212.031C534.855 214.313 540.194 214.247 544.665 211.104C549.136 207.961 570.558 193.921 581.097 185.054C581.872 184.424 582.508 183.645 582.968 182.765C583.427 181.885 583.7 180.922 583.769 179.937C583.839 178.951 583.703 177.962 583.371 177.03C583.039 176.099 582.517 175.244 581.837 174.519L571.394 163.766C570.156 162.493 568.484 161.716 566.697 161.584C564.909 161.452 563.134 161.974 561.71 163.05L523.072 192.173Z" fill="#252322"/>
<path d="M384.686 330.342C386.882 336.195 390.327 341.515 394.789 345.944C399.659 350.622 405.991 353.709 412.072 356.644L437.686 369.041C441.432 370.741 445.046 372.708 448.498 374.927C457.042 380.68 463.132 389.221 469.056 397.573L509.934 455.223C512.008 458.178 514.84 461.475 518.468 461.035C520.405 460.611 522.176 459.641 523.565 458.245C527.837 454.697 532.409 450.683 533.291 445.245C533.904 441.453 532.614 437.639 531.153 434.06C524.091 416.421 514.029 400.114 503.947 383.911C487.938 358.272 471.733 332.704 455.331 307.206C450.973 300.439 445.468 289.787 438.847 285.119C438.847 285.119 381.332 286.789 380.384 292.495C378.28 305.271 379.768 318.359 384.686 330.342V330.342Z" fill="#252322"/>
<path d="M384.686 330.342C386.882 336.195 390.327 341.515 394.789 345.944C399.659 350.622 405.991 353.709 412.072 356.644L437.686 369.041C441.432 370.741 445.046 372.708 448.498 374.927C457.042 380.68 463.132 389.221 469.056 397.573L509.934 455.223C512.008 458.178 514.84 461.475 518.468 461.035C520.405 460.611 522.176 459.641 523.565 458.245C527.837 454.697 532.409 450.683 533.291 445.245C533.904 441.453 532.614 437.639 531.153 434.06C524.091 416.421 514.029 400.114 503.947 383.911C487.938 358.272 471.733 332.704 455.331 307.206C450.973 300.439 445.468 289.787 438.847 285.119C438.847 285.119 381.332 286.789 380.384 292.495C378.28 305.271 379.768 318.359 384.686 330.342V330.342Z" fill="url(#paint10_linear_198_466)"/>
<path d="M431.328 125.657L423.521 129.52L421.017 156.947L437.258 154.772L431.328 125.657Z" fill="#EB513B"/>
<path d="M451.002 152.892C451.11 154.109 451.219 155.326 451.327 156.543C451.374 157.071 451.45 157.596 451.556 158.115C451.691 158.639 451.856 159.156 452.05 159.662L454.784 167.363L454.484 154.481C456.987 155.412 459.539 156.236 462.125 156.926C461.765 155.024 461.101 153.19 460.157 151.494C458.354 147.916 456.668 144.313 454.753 140.818C454.295 139.88 453.677 139.026 452.925 138.294C452.547 137.931 452.088 137.661 451.584 137.503C451.081 137.345 450.546 137.304 450.023 137.384C448.605 138.124 450.016 143.474 450.138 144.675L451.002 152.892Z" fill="#EB513B"/>
<path d="M573.635 181.279L545.36 202.558C544.86 202.884 544.263 203.032 543.667 202.979C543.071 202.925 542.512 202.674 542.082 202.266L531.628 192.565C531.417 192.403 531.246 192.195 531.128 191.958C531.01 191.721 530.948 191.461 530.947 191.196C530.947 190.932 531.007 190.671 531.124 190.433C531.241 190.194 531.411 189.985 531.622 189.82L559.957 168.55C560.457 168.225 561.054 168.077 561.65 168.13C562.245 168.183 562.804 168.435 563.234 168.843L573.687 178.529C573.896 178.696 574.064 178.907 574.177 179.147C574.291 179.387 574.347 179.65 574.342 179.915C574.337 180.18 574.271 180.44 574.148 180.677C574.025 180.913 573.85 181.119 573.635 181.279Z" fill="#EB513B"/>
</g>
<defs>
<linearGradient id="paint0_linear_198_466" x1="441.398" y1="203.644" x2="501.765" y2="197.323" gradientUnits="userSpaceOnUse">
<stop offset="0.01"/>
<stop offset="0.13" stop-opacity="0.69"/>
<stop offset="1" stop-opacity="0"/>
</linearGradient>
<linearGradient id="paint1_linear_198_466" x1="619.537" y1="129.504" x2="210.239" y2="649.714" gradientUnits="userSpaceOnUse">
<stop offset="0.01"/>
<stop offset="0.13" stop-opacity="0.69"/>
<stop offset="1" stop-opacity="0"/>
</linearGradient>
<linearGradient id="paint2_linear_198_466" x1="512.344" y1="317.409" x2="394.858" y2="466.748" gradientUnits="userSpaceOnUse">
<stop offset="0.01"/>
<stop offset="0.13" stop-opacity="0.69"/>
<stop offset="1" stop-opacity="0"/>
</linearGradient>
<linearGradient id="paint3_linear_198_466" x1="318.163" y1="314.692" x2="504.92" y2="411.523" gradientUnits="userSpaceOnUse">
<stop offset="0.01"/>
<stop offset="0.13" stop-opacity="0.69"/>
<stop offset="1" stop-opacity="0"/>
</linearGradient>
<linearGradient id="paint4_linear_198_466" x1="408.205" y1="367.078" x2="547.107" y2="354.722" gradientUnits="userSpaceOnUse">
<stop offset="0.01"/>
<stop offset="0.13" stop-opacity="0.69"/>
<stop offset="1" stop-opacity="0"/>
</linearGradient>
<linearGradient id="paint5_linear_198_466" x1="544.707" y1="485.453" x2="505.677" y2="478.893" gradientUnits="userSpaceOnUse">
<stop offset="0.01"/>
<stop offset="0.13" stop-opacity="0.69"/>
<stop offset="1" stop-opacity="0"/>
</linearGradient>
<linearGradient id="paint6_linear_198_466" x1="529.643" y1="503.206" x2="569.267" y2="499.681" gradientUnits="userSpaceOnUse">
<stop offset="0.01"/>
<stop offset="0.13" stop-opacity="0.69"/>
<stop offset="1" stop-opacity="0"/>
</linearGradient>
<linearGradient id="paint7_linear_198_466" x1="433.123" y1="148.671" x2="476.445" y2="179.167" gradientUnits="userSpaceOnUse">
<stop offset="0.01"/>
<stop offset="0.13" stop-opacity="0.69"/>
<stop offset="1" stop-opacity="0"/>
</linearGradient>
<linearGradient id="paint8_linear_198_466" x1="459.889" y1="144.815" x2="387.434" y2="181.763" gradientUnits="userSpaceOnUse">
<stop offset="0.01" stop-color="#1E1E1E"/>
<stop offset="0.13" stop-color="#1E1E1E" stop-opacity="0.33"/>
<stop offset="1" stop-opacity="0"/>
</linearGradient>
<linearGradient id="paint9_linear_198_466" x1="340.202" y1="242.172" x2="433.44" y2="230.557" gradientUnits="userSpaceOnUse">
<stop offset="0.01"/>
<stop offset="0.13" stop-opacity="0.69"/>
<stop offset="1" stop-opacity="0"/>
</linearGradient>
<linearGradient id="paint10_linear_198_466" x1="431.761" y1="385.879" x2="532.169" y2="331.967" gradientUnits="userSpaceOnUse">
<stop offset="0.01"/>
<stop offset="0.13" stop-opacity="0.69"/>
<stop offset="1" stop-opacity="0"/>
</linearGradient>
<clipPath id="clip0_198_466">
<rect width="777" height="576" fill="white" transform="translate(0 68.8459) rotate(-5.08335)"/>
</clipPath>
</defs>
</svg>
